<?xml version="1.0" encoding="utf-8"?>
<!-- Generator: Adobe Illustrator 16.0.0, SVG Export Plug-In . SVG Version: 6.00 Build 0)  -->
<!DOCTYPE svg PUBLIC "-//W3C//DTD SVG 1.1//EN" "http://www.w3.org/Graphics/SVG/1.1/DTD/svg11.dtd">
<svg version="1.1" xmlns="http://www.w3.org/2000/svg" xmlns:xlink="http://www.w3.org/1999/xlink" x="0px" y="0px" width="700px"
	 height="450px" viewBox="0 0 700 450" enable-background="new 0 0 700 450" xml:space="preserve">
<g id="PurpleBG">
	<rect fill="#2C1D30" width="700" height="450"/>
</g>
<g id="SLIIPSIcon">
	<g>
		<path fill="#FFFFFF" d="M257.975,262.221v-13.076h-35.19v-7.098h35.19v-8.558h-35.19v-7.098h35.19v-8.558h-35.19v-7.099h35.19
			v-33.802h-137.7v-28.385h137.7v-26.641H113.401c-7.395,0-13.401,5.973-13.401,13.316v170.404c0,7.346,6.006,13.316,13.401,13.316
			h34.703c3.958,0,10.171,2.1,13.303,4.495l84.065,55.06l-10.556-56.354c-0.227-0.952-0.109-1.785,0.334-2.338
			c0.444-0.558,1.231-0.862,2.217-0.862h176.028c7.384,0,13.401-5.971,13.401-13.316v-15.066H286.503
			C270.771,290.562,257.975,277.849,257.975,262.221z M189.177,249.145h-68.901v-7.098h68.901V249.145z M189.177,233.489h-68.901
			v-7.098h68.901V233.489z M189.177,217.834h-68.901v-7.099h68.901V217.834z"/>
		<path fill="#FFFFFF" d="M586.597,78.5H286.503c-7.391,0-13.403,5.973-13.403,13.316v170.404c0,7.345,6.012,13.317,13.403,13.317
			h176.022c0.986,0,1.772,0.306,2.216,0.86c0.443,0.554,0.562,1.386,0.34,2.338l-10.556,56.355l84.066-55.061
			c3.131-2.393,9.345-4.493,13.299-4.493h34.706c7.39,0,13.402-5.973,13.402-13.317V91.816
			C599.999,84.473,593.986,78.5,586.597,78.5z M477.209,205.735H294.025v-7.097h183.184V205.735z M477.209,190.081H294.025v-7.097
			h183.184V190.081z M477.209,174.426H294.025v-7.1h183.184V174.426z M579.723,252.063h-68.905v-12.524h68.905V252.063z
			 M579.723,205.735h-68.905v-7.097h68.905V205.735z M579.723,190.081h-68.905v-7.097h68.905V190.081z M579.723,174.426h-68.905
			v-7.1h68.905V174.426z M579.723,133.525H294.025v-28.385h285.697V133.525z"/>
	</g>
</g>
</svg>
