<?xml version="1.0" encoding="utf-8"?>
<!-- Generator: Adobe Illustrator 16.0.0, SVG Export Plug-In . SVG Version: 6.00 Build 0)  -->
<!DOCTYPE svg PUBLIC "-//W3C//DTD SVG 1.1//EN" "http://www.w3.org/Graphics/SVG/1.1/DTD/svg11.dtd">
<svg version="1.1" id="Layer_1" xmlns="http://www.w3.org/2000/svg" xmlns:xlink="http://www.w3.org/1999/xlink" x="0px" y="0px"
	 width="700px" height="450px" viewBox="0 0 700 450" enable-background="new 0 0 700 450" xml:space="preserve">
<rect x="319.057" y="161.48" fill="#FFFFFF" width="61.03" height="4.016"/>
<rect x="319.057" y="177.943" fill="#FFFFFF" width="33.725" height="3.212"/>
<rect x="372.06" y="177.943" fill="#FFFFFF" width="8.027" height="3.212"/>
<rect x="319.057" y="194.004" fill="#FFFFFF" width="33.725" height="3.212"/>
<rect x="372.06" y="194.004" fill="#FFFFFF" width="8.027" height="3.212"/>
<rect x="319.057" y="210.064" fill="#FFFFFF" width="33.725" height="3.212"/>
<rect x="372.06" y="210.064" fill="#FFFFFF" width="8.027" height="3.212"/>
<rect x="319.057" y="242.186" fill="#FFFFFF" width="33.725" height="3.213"/>
<rect x="372.06" y="242.186" fill="#FFFFFF" width="8.027" height="3.213"/>
<g>
	<g>
		<g>
			<path fill="#FFFFFF" d="M100,177.695c0-4.178,0.797-8.181,2.39-12.011c1.594-3.827,3.877-7.296,6.854-10.402
				c2.977-3.105,6.866-5.596,11.672-7.472c4.805-1.873,10.182-2.811,16.139-2.811c11.277,0,22.062,4.119,32.354,12.363
				c0.838,0.483,1.305,1.352,1.399,2.609c0.097,1.258-0.047,2.127-0.43,2.607l-7.541,12.685c-0.527,0.963-1.318,1.688-2.372,2.167
				c-1.054,0.483-1.917,0.468-2.585-0.043c-0.05-0.05-0.662-0.471-1.845-1.261c-1.179-0.791-2.475-1.594-3.883-2.413
				c-1.405-0.815-3.015-1.681-4.824-2.6c-1.81-0.919-3.743-1.671-5.803-2.259c-2.064-0.583-3.972-0.878-5.731-0.878
				c-2.833,0-5.232,0.803-7.199,2.412c-1.97,1.606-2.952,3.482-2.952,5.621c0,2.962,1.349,5.616,4.053,7.961
				c2.704,2.346,7.202,4.769,13.498,7.269c3.04,1.173,5.697,2.346,7.971,3.52c2.274,1.176,4.859,2.833,7.757,4.975
				c2.895,2.143,5.326,4.414,7.29,6.811c1.963,2.399,3.639,5.383,5.028,8.953c1.39,3.573,2.083,7.399,2.083,11.481
				c0,4.08-0.834,8.14-2.503,12.174c-1.669,4.035-3.991,7.642-6.958,10.818c-2.97,3.182-6.738,5.744-11.305,7.695
				c-4.564,1.951-9.523,2.926-14.872,2.926c-4.859,0-9.442-0.451-13.752-1.352c-4.307-0.903-7.939-2.085-10.888-3.543
				c-2.951-1.459-5.317-2.803-7.092-4.023c-1.775-1.219-3.237-2.412-4.385-3.581c-0.837-0.847-1.321-1.524-1.449-2.03
				c-0.132-0.504,0.088-1.367,0.662-2.588l7.506-13.531c0.574-0.957,1.509-1.473,2.814-1.551c1.305-0.075,2.189,0.116,2.66,0.574
				l1.173,0.69c0.781,0.512,1.669,1.069,2.66,1.681c0.994,0.615,2.262,1.303,3.808,2.068c1.54,0.766,3.099,1.455,4.668,2.066
				c1.568,0.612,3.293,1.123,5.179,1.531c1.882,0.407,3.661,0.611,5.333,0.611c3.253,0,5.916-0.881,7.99-2.641
				s3.108-4.02,3.108-6.773c0-6.324-5.537-11.605-16.606-15.84c-3.042-1.174-5.907-2.447-8.592-3.828
				c-2.685-1.376-5.449-3.124-8.288-5.242c-2.842-2.117-5.267-4.373-7.274-6.772c-2.008-2.396-3.661-5.229-4.966-8.494
				C100.649,184.763,100,181.314,100,177.695z"/>
			<path fill="#FFFFFF" d="M198.416,255.966V149.626c0-0.838,0.286-1.556,0.863-2.158c0.574-0.6,1.305-0.9,2.196-0.9h19.135
				c0.784,0,1.49,0.314,2.117,0.941c0.627,0.627,0.941,1.333,0.941,2.117v85.793h38.191c0.888,0,1.619,0.301,2.196,0.9
				c0.574,0.602,0.863,1.32,0.863,2.158v17.487c0,0.838-0.289,1.557-0.863,2.155c-0.577,0.602-1.308,0.903-2.196,0.903h-60.385
				c-0.891,0-1.622-0.302-2.196-0.903C198.702,257.522,198.416,256.804,198.416,255.966z"/>
			<path fill="#FFFFFF" d="M283.657,255.966V149.626c0-0.784,0.311-1.49,0.935-2.117c0.624-0.627,1.327-0.941,2.104-0.941h19.173
				c0.778,0,1.48,0.314,2.104,0.941c0.622,0.627,0.935,1.333,0.935,2.117v106.339c0,0.784-0.313,1.489-0.935,2.118
				c-0.624,0.627-1.327,0.94-2.104,0.94h-19.173c-0.777,0-1.48-0.313-2.104-0.94C283.968,257.455,283.657,256.75,283.657,255.966z"
				/>
			<path fill="#FFFFFF" d="M387.985,255.966V149.626c0-0.784,0.311-1.49,0.935-2.117c0.625-0.627,1.327-0.941,2.105-0.941h19.172
				c0.779,0,1.481,0.314,2.105,0.941c0.621,0.627,0.935,1.333,0.935,2.117v106.339c0,0.784-0.313,1.489-0.935,2.118
				c-0.624,0.627-1.326,0.94-2.105,0.94h-19.172c-0.778,0-1.48-0.313-2.105-0.94C388.296,257.455,387.985,256.75,387.985,255.966z"
				/>
			<path fill="#FFFFFF" d="M436.103,255.966V149.626c0-0.838,0.288-1.556,0.869-2.158c0.579-0.6,1.317-0.9,2.214-0.9h39.051
				c9.963,0,18.485,3.488,25.574,10.468c7.09,6.979,10.635,15.333,10.635,25.057c0,6.562-1.622,12.629-4.865,18.193
				c-3.247,5.565-7.639,9.978-13.175,13.231c-5.54,3.256-11.553,4.884-18.04,4.884h-17.011v37.576c0,0.781-0.317,1.484-0.948,2.107
				c-0.633,0.625-1.342,0.938-2.13,0.938h-19.098c-0.894,0-1.631-0.302-2.207-0.903
				C436.391,257.522,436.103,256.804,436.103,255.966z M461.354,194.797h15.17c3.493,0,6.477-1.23,8.955-3.686
				c2.475-2.456,3.714-5.464,3.714-9.018c0-3.348-1.239-6.171-3.714-8.47c-2.479-2.3-5.462-3.451-8.955-3.451h-15.17V194.797z"/>
			<path fill="#FFFFFF" d="M526.676,177.695c0-4.178,0.797-8.181,2.391-12.011c1.593-3.827,3.877-7.296,6.854-10.402
				c2.978-3.105,6.867-5.596,11.673-7.472c4.806-1.873,10.182-2.811,16.139-2.811c11.277,0,22.062,4.119,32.354,12.363
				c0.837,0.483,1.304,1.352,1.398,2.609c0.097,1.258-0.047,2.127-0.43,2.607l-7.541,12.685c-0.526,0.963-1.317,1.688-2.372,2.167
				c-1.053,0.483-1.916,0.468-2.584-0.043c-0.051-0.05-0.662-0.471-1.845-1.261c-1.18-0.791-2.475-1.594-3.884-2.413
				c-1.405-0.815-3.014-1.681-4.824-2.6s-3.742-1.671-5.804-2.259c-2.063-0.583-3.971-0.878-5.731-0.878
				c-2.831,0-5.231,0.803-7.198,2.412c-1.97,1.606-2.952,3.482-2.952,5.621c0,2.962,1.35,5.616,4.054,7.961
				c2.703,2.346,7.202,4.769,13.497,7.269c3.04,1.173,5.697,2.346,7.972,3.52c2.273,1.176,4.858,2.833,7.757,4.975
				c2.896,2.143,5.326,4.414,7.29,6.811c1.964,2.399,3.639,5.383,5.028,8.953c1.39,3.573,2.083,7.399,2.083,11.481
				c0,4.08-0.835,8.14-2.503,12.174c-1.67,4.035-3.99,7.642-6.958,10.818c-2.971,3.182-6.738,5.744-11.305,7.695
				c-4.564,1.951-9.524,2.926-14.873,2.926c-4.858,0-9.44-0.451-13.751-1.352c-4.307-0.903-7.939-2.085-10.889-3.543
				c-2.951-1.459-5.316-2.803-7.092-4.023c-1.775-1.219-3.238-2.412-4.385-3.581c-0.838-0.847-1.321-1.524-1.45-2.03
				c-0.132-0.504,0.088-1.367,0.662-2.588l7.506-13.531c0.574-0.957,1.509-1.473,2.814-1.551c1.305-0.075,2.189,0.116,2.66,0.574
				l1.173,0.69c0.781,0.512,1.669,1.069,2.66,1.681c0.994,0.615,2.262,1.303,3.809,2.068c1.54,0.766,3.099,1.455,4.667,2.066
				c1.568,0.612,3.294,1.123,5.179,1.531c1.883,0.407,3.661,0.611,5.333,0.611c3.253,0,5.916-0.881,7.99-2.641
				c2.073-1.76,3.108-4.02,3.108-6.773c0-6.324-5.536-11.605-16.607-15.84c-3.042-1.174-5.906-2.447-8.591-3.828
				c-2.686-1.376-5.448-3.124-8.288-5.242c-2.842-2.117-5.267-4.373-7.274-6.772c-2.008-2.396-3.661-5.229-4.966-8.494
				C527.325,184.763,526.676,181.314,526.676,177.695z"/>
		</g>
	</g>
	<g>
		<g>
			<path fill="#FFFFFF" d="M103.398,304.066v-21.262c0-0.174,0.06-0.318,0.179-0.434c0.116-0.119,0.26-0.18,0.433-0.18h1.251
				c0.172,0,0.317,0.066,0.436,0.191c0.116,0.133,0.176,0.271,0.176,0.422v19.721h9.251c0.172,0,0.316,0.059,0.433,0.176
				c0.119,0.119,0.179,0.264,0.179,0.436v0.93c0,0.172-0.06,0.316-0.179,0.432c-0.116,0.119-0.26,0.18-0.433,0.18h-11.114
				c-0.173,0-0.317-0.061-0.433-0.18C103.458,304.383,103.398,304.238,103.398,304.066z"/>
			<path fill="#FFFFFF" d="M128.487,304.066v-21.262c0-0.174,0.06-0.318,0.179-0.434c0.116-0.119,0.26-0.18,0.433-0.18h12.657
				c0.169,0,0.314,0.061,0.433,0.18c0.116,0.115,0.176,0.26,0.176,0.434v0.928c0,0.174-0.06,0.32-0.176,0.436
				c-0.119,0.117-0.264,0.176-0.433,0.176h-10.794v7.84h9.219c0.169,0,0.313,0.057,0.433,0.176c0.119,0.119,0.175,0.264,0.175,0.434
				v0.93c0,0.174-0.056,0.318-0.175,0.438c-0.12,0.115-0.264,0.174-0.433,0.174h-9.219v8.191h10.794
				c0.169,0,0.314,0.059,0.433,0.176c0.116,0.119,0.176,0.264,0.176,0.436v0.93c0,0.172-0.06,0.316-0.176,0.432
				c-0.119,0.119-0.264,0.18-0.433,0.18h-12.657c-0.173,0-0.317-0.061-0.433-0.18C128.547,304.383,128.487,304.238,128.487,304.066z
				"/>
			<path fill="#FFFFFF" d="M159.997,304.066v-19.723h-5.59c-0.169,0-0.314-0.059-0.433-0.176c-0.116-0.115-0.176-0.262-0.176-0.436
				v-0.928c0-0.174,0.06-0.318,0.176-0.434c0.119-0.119,0.264-0.18,0.433-0.18h13.62c0.173,0,0.317,0.061,0.433,0.18
				c0.119,0.115,0.179,0.26,0.179,0.434v0.928c0,0.174-0.06,0.32-0.179,0.436c-0.116,0.117-0.26,0.176-0.433,0.176h-5.589v19.723
				c0,0.15-0.057,0.287-0.176,0.42c-0.116,0.125-0.264,0.191-0.433,0.191h-1.22c-0.173,0-0.317-0.066-0.433-0.191
				C160.057,304.354,159.997,304.217,159.997,304.066z"/>
			<path fill="#FFFFFF" d="M180.139,290.736l-0.449-0.447c-0.213-0.213-0.15-0.471,0.191-0.771c1.331-1.199,1.992-2.547,1.992-4.047
				c-0.084,0.018-0.213,0.031-0.386,0.031c-0.493,0-0.919-0.182-1.283-0.547c-0.364-0.363-0.545-0.793-0.545-1.285
				c0-0.514,0.182-0.947,0.545-1.299c0.364-0.357,0.791-0.533,1.283-0.533c1.415,0,2.121,0.967,2.121,2.893
				c0,1.197-0.282,2.334-0.85,3.406c-0.568,1.07-1.183,1.912-1.848,2.535C180.61,290.928,180.355,290.951,180.139,290.736z"/>
			<path fill="#FFFFFF" d="M196.037,302.396c-0.386-0.32-0.449-0.684-0.191-1.092c0.063-0.062,0.147-0.166,0.257-0.307
				c0.106-0.139,0.182-0.238,0.223-0.305c0.386-0.512,0.762-0.611,1.126-0.289c1.904,1.629,3.714,2.443,5.427,2.443
				c1.265,0,2.296-0.344,3.099-1.027c0.803-0.688,1.205-1.521,1.205-2.506c0-1.053-0.442-1.955-1.333-2.715
				c-0.888-0.758-2.318-1.549-4.288-2.361c-1.97-0.855-3.404-1.75-4.304-2.682c-0.897-0.934-1.349-2.254-1.349-3.967
				c0-0.602,0.122-1.209,0.37-1.83c0.245-0.623,0.621-1.234,1.123-1.832c0.505-0.6,1.22-1.092,2.152-1.479
				c0.931-0.385,1.998-0.58,3.196-0.58c0.944,0,1.87,0.141,2.779,0.42c0.91,0.277,1.59,0.547,2.039,0.803l0.674,0.418
				c0.15,0.066,0.257,0.182,0.323,0.355c0.062,0.168,0.019,0.412-0.129,0.736c-0.044,0.066-0.106,0.166-0.194,0.305
				c-0.085,0.141-0.15,0.24-0.191,0.307c-0.301,0.449-0.674,0.547-1.126,0.289c-1.713-0.986-3.115-1.48-4.207-1.48
				c-1.521,0-2.638,0.375-3.356,1.125c-0.719,0.75-1.076,1.553-1.076,2.41c0,1.029,0.357,1.891,1.076,2.588
				c0.718,0.695,1.804,1.342,3.259,1.941c2.462,1.008,4.266,2.01,5.414,3.021c1.145,1.004,1.719,2.373,1.719,4.107
				c0,1.65-0.681,3.025-2.042,4.129c-1.358,1.105-2.993,1.656-4.896,1.656c-1.136,0-2.255-0.209-3.356-0.627
				c-1.104-0.42-1.876-0.785-2.315-1.092C196.705,302.967,196.338,302.676,196.037,302.396z"/>
			<path fill="#FFFFFF" d="M243.353,304.066v-19.723h-5.59c-0.169,0-0.314-0.059-0.433-0.176c-0.116-0.115-0.176-0.262-0.176-0.436
				v-0.928c0-0.174,0.06-0.318,0.176-0.434c0.119-0.119,0.264-0.18,0.433-0.18h13.62c0.173,0,0.317,0.061,0.433,0.18
				c0.119,0.115,0.179,0.26,0.179,0.434v0.928c0,0.174-0.06,0.32-0.179,0.436c-0.116,0.117-0.26,0.176-0.433,0.176h-5.59v19.723
				c0,0.15-0.057,0.287-0.176,0.42c-0.116,0.125-0.264,0.191-0.433,0.191h-1.22c-0.173,0-0.317-0.066-0.433-0.191
				C243.413,304.354,243.353,304.217,243.353,304.066z"/>
			<path fill="#FFFFFF" d="M261.085,304.678c-0.238,0-0.414-0.084-0.53-0.258c-0.12-0.172-0.125-0.363-0.019-0.576l9.765-21.621
				c0.129-0.234,0.311-0.354,0.546-0.354h0.323c0.235,0,0.417,0.119,0.546,0.354l9.7,21.621c0.109,0.213,0.104,0.404-0.016,0.576
				c-0.116,0.174-0.295,0.258-0.531,0.258h-1.283c-0.279,0-0.461-0.117-0.546-0.355l-2.378-5.297h-11.402l-2.346,5.297
				c-0.084,0.238-0.267,0.355-0.546,0.355H261.085z M266.158,297.033h9.636l-4.689-10.537h-0.257L266.158,297.033z"/>
			<path fill="#FFFFFF" d="M294.233,304.066v-21.262c0-0.174,0.06-0.318,0.179-0.434c0.116-0.119,0.26-0.18,0.433-0.18h1.251
				c0.172,0,0.317,0.066,0.436,0.191c0.116,0.133,0.175,0.271,0.175,0.422v19.721h9.251c0.173,0,0.317,0.059,0.433,0.176
				c0.119,0.119,0.179,0.264,0.179,0.436v0.93c0,0.172-0.06,0.316-0.179,0.432c-0.116,0.119-0.26,0.18-0.433,0.18h-11.114
				c-0.173,0-0.317-0.061-0.433-0.18C294.292,304.383,294.233,304.238,294.233,304.066z"/>
			<path fill="#FFFFFF" d="M319.318,303.906v-20.941c0-0.217,0.075-0.398,0.226-0.551c0.15-0.146,0.332-0.223,0.545-0.223h0.932
				c0.213,0,0.395,0.076,0.545,0.223c0.15,0.152,0.226,0.334,0.226,0.551v9.086l10.023-9.535c0.169-0.217,0.373-0.324,0.608-0.324
				h1.575c0.301,0,0.499,0.129,0.596,0.387c0.094,0.258,0.025,0.502-0.21,0.74l-10.151,9.475l10.634,10.891
				c0.147,0.105,0.176,0.297,0.079,0.576c-0.094,0.277-0.304,0.418-0.624,0.418h-1.641c-0.276,0-0.471-0.076-0.578-0.223
				l-10.311-10.764v10.215c0,0.217-0.075,0.398-0.226,0.549c-0.15,0.146-0.333,0.223-0.545,0.223h-0.932
				c-0.213,0-0.395-0.076-0.545-0.223C319.394,304.305,319.318,304.123,319.318,303.906z"/>
			<path fill="#FFFFFF" d="M362.396,304.678c-0.238,0-0.414-0.084-0.53-0.258c-0.119-0.172-0.125-0.363-0.019-0.576l9.766-21.621
				c0.128-0.234,0.311-0.354,0.545-0.354h0.324c0.234,0,0.417,0.119,0.545,0.354l9.699,21.621c0.11,0.213,0.104,0.404-0.016,0.576
				c-0.116,0.174-0.295,0.258-0.529,0.258h-1.283c-0.279,0-0.462-0.117-0.546-0.355l-2.378-5.297h-11.402l-2.346,5.297
				c-0.086,0.238-0.269,0.355-0.547,0.355H362.396z M367.469,297.033h9.637l-4.689-10.537h-0.258L367.469,297.033z"/>
			<path fill="#FFFFFF" d="M395.541,304.066v-21.262c0-0.174,0.06-0.318,0.179-0.434c0.116-0.119,0.261-0.18,0.434-0.18h7.035
				c1.948,0,3.532,0.557,4.752,1.674c1.221,1.109,1.833,2.523,1.833,4.236c0,1.137-0.311,2.152-0.932,3.053
				c-0.622,0.896-1.362,1.594-2.219,2.088c1.052,0.428,1.955,1.074,2.717,1.943c0.759,0.869,1.139,1.967,1.139,3.291
				c0,1.799-0.652,3.283-1.961,4.451c-1.305,1.166-2.986,1.75-5.04,1.75h-7.324c-0.173,0-0.317-0.061-0.434-0.18
				C395.601,304.383,395.541,304.238,395.541,304.066z M397.888,302.525h5.847c1.154,0,2.121-0.393,2.889-1.174
				c0.772-0.781,1.158-1.75,1.158-2.906c0-1.137-0.448-2.078-1.35-2.824c-0.9-0.752-1.981-1.127-3.243-1.127h-5.301V302.525z
				 M397.95,292.277h5.238c1.198,0,2.14-0.379,2.826-1.139c0.685-0.762,1.025-1.719,1.025-2.877c0-1.176-0.335-2.113-1.01-2.811
				s-1.621-1.041-2.842-1.041h-5.238V292.277z"/>
			<path fill="#FFFFFF" d="M426.652,301.645c-2.236-2.24-3.356-4.965-3.356-8.178s1.12-5.949,3.356-8.207
				c2.239-2.258,4.962-3.391,8.175-3.391c3.212,0,5.944,1.133,8.193,3.391c2.246,2.258,3.372,4.994,3.372,8.207
				s-1.126,5.938-3.372,8.178c-2.249,2.236-4.981,3.355-8.193,3.355C431.614,305,428.892,303.881,426.652,301.645z M428.274,286.883
				c-1.819,1.84-2.729,4.035-2.729,6.584c0,2.551,0.91,4.732,2.729,6.553c1.822,1.818,4.006,2.729,6.553,2.729
				c2.55,0,4.739-0.91,6.568-2.729c1.832-1.82,2.748-4.002,2.748-6.553c0-2.549-0.916-4.744-2.748-6.584
				c-1.829-1.842-4.019-2.762-6.568-2.762C432.28,284.121,430.097,285.041,428.274,286.883z"/>
			<path fill="#FFFFFF" d="M460.33,296.389v-13.584c0-0.15,0.059-0.289,0.179-0.422c0.116-0.125,0.26-0.191,0.433-0.191h1.22
				c0.173,0,0.317,0.061,0.434,0.18c0.118,0.115,0.179,0.26,0.179,0.434v13.393c0,1.883,0.546,3.441,1.638,4.676
				c1.092,1.229,2.556,1.844,4.4,1.844c1.863,0,3.344-0.607,4.448-1.832c1.101-1.217,1.653-2.76,1.653-4.623v-13.457
				c0-0.174,0.06-0.318,0.179-0.434c0.115-0.119,0.26-0.18,0.433-0.18h1.221c0.172,0,0.316,0.066,0.433,0.191
				c0.119,0.133,0.179,0.271,0.179,0.422v13.584c0,2.463-0.8,4.516-2.393,6.152c-1.597,1.637-3.648,2.459-6.152,2.459
				c-2.484,0-4.52-0.822-6.104-2.459C461.123,300.904,460.33,298.852,460.33,296.389z"/>
			<path fill="#FFFFFF" d="M496.115,304.066v-19.723h-5.59c-0.169,0-0.314-0.059-0.433-0.176c-0.116-0.115-0.176-0.262-0.176-0.436
				v-0.928c0-0.174,0.06-0.318,0.176-0.434c0.118-0.119,0.264-0.18,0.433-0.18h13.62c0.172,0,0.316,0.061,0.433,0.18
				c0.119,0.115,0.179,0.26,0.179,0.434v0.928c0,0.174-0.06,0.32-0.179,0.436c-0.116,0.117-0.261,0.176-0.433,0.176h-5.59v19.723
				c0,0.15-0.057,0.287-0.176,0.42c-0.116,0.125-0.264,0.191-0.434,0.191h-1.22c-0.172,0-0.316-0.066-0.433-0.191
				C496.174,304.354,496.115,304.217,496.115,304.066z"/>
			<path fill="#FFFFFF" d="M528.268,304.066v-21.262c0-0.174,0.06-0.318,0.179-0.434c0.116-0.119,0.261-0.18,0.434-0.18h7.099
				c1.97,0,3.66,0.697,5.075,2.086c1.415,1.395,2.12,3.064,2.12,5.014c0,1.992-0.702,3.695-2.104,5.107
				c-1.402,1.414-3.09,2.121-5.06,2.121h-5.299v7.547c0,0.15-0.065,0.287-0.193,0.42c-0.129,0.125-0.268,0.191-0.418,0.191h-1.22
				c-0.173,0-0.317-0.061-0.434-0.18C528.327,304.383,528.268,304.238,528.268,304.066z M530.711,294.141h5.107
				c1.327,0,2.472-0.477,3.438-1.43c0.964-0.951,1.443-2.115,1.443-3.482c0-1.287-0.479-2.371-1.443-3.262
				c-0.966-0.889-2.11-1.334-3.438-1.334h-5.107V294.141z"/>
			<path fill="#FFFFFF" d="M553.231,304.678c-0.238,0-0.414-0.084-0.531-0.258c-0.119-0.172-0.125-0.363-0.019-0.576l9.766-21.621
				c0.128-0.234,0.311-0.354,0.545-0.354h0.324c0.234,0,0.417,0.119,0.545,0.354l9.699,21.621c0.11,0.213,0.104,0.404-0.016,0.576
				c-0.116,0.174-0.295,0.258-0.529,0.258h-1.283c-0.279,0-0.462-0.117-0.546-0.355l-2.378-5.297h-11.402l-2.347,5.297
				c-0.085,0.238-0.267,0.355-0.546,0.355H553.231z M558.304,297.033h9.636l-4.688-10.537h-0.259L558.304,297.033z"/>
			<path fill="#FFFFFF" d="M589.396,304.066v-10.215l-7.741-10.729c-0.129-0.213-0.142-0.422-0.035-0.627
				c0.11-0.201,0.292-0.305,0.549-0.305h1.509c0.192,0,0.365,0.098,0.516,0.289l6.486,8.963l6.49-8.963
				c0.147-0.191,0.32-0.289,0.512-0.289h1.512c0.258,0,0.438,0.104,0.546,0.305c0.106,0.205,0.098,0.414-0.031,0.627l-7.839,10.697
				v10.246c0,0.15-0.063,0.287-0.191,0.42c-0.129,0.125-0.271,0.191-0.421,0.191h-1.251c-0.173,0-0.317-0.061-0.434-0.18
				C589.452,304.383,589.396,304.238,589.396,304.066z"/>
		</g>
	</g>
</g>
</svg>
